<svg width="200" height="200" viewBox="0 0 200 200" fill="none" xmlns="http://www.w3.org/2000/svg">
<rect width="200" height="200" rx="20" fill="white"/>
<path d="M162.167 100.5V177.583H38.8334V100.5M100.5 177.583V61.9584M100.5 61.9584L65.8125 61.9584C60.7016 61.9584 55.8 59.928 52.186 56.3141C48.572 52.7001 46.5417 47.7985 46.5417 42.6875C46.5417 37.5766 48.572 32.675 52.186 29.061C55.8 25.447 60.7016 23.4167 65.8125 23.4167C92.7917 23.4167 100.5 61.9584 100.5 61.9584ZM100.5 61.9584L135.188 61.9584C140.298 61.9584 145.2 59.928 148.814 56.3141C152.428 52.7001 154.458 47.7985 154.458 42.6875C154.458 37.5766 152.428 32.675 148.814 29.061C145.2 25.447 140.298 23.4167 135.188 23.4167C108.208 23.4167 100.5 61.9584 100.5 61.9584ZM23.4167 61.9584H177.583V100.5H23.4167V61.9584Z" stroke="black" stroke-width="5" stroke-linecap="round" stroke-linejoin="round"/>
</svg>
